<mxfile host="app.diagrams.net" modified="2023-10-17T04:08:29.598Z" agent="Mozilla/5.0 (Windows NT 10.0; Win64; x64; rv:109.0) Gecko/20100101 Firefox/118.0" etag="1D51lD-ImQjopJvKE7XI" version="22.0.4" type="github">
  <diagram name="Page-1" id="Mdexz_Sfeo060WgDEI17">
    <mxGraphModel dx="880" dy="425" grid="1" gridSize="10" guides="1" tooltips="1" connect="1" arrows="1" fold="1" page="1" pageScale="1" pageWidth="850" pageHeight="1100" math="0" shadow="0">
      <root>
        <mxCell id="0" />
        <mxCell id="1" parent="0" />
        <mxCell id="FGNxBJC4txxLCURp01Lw-1" value="Start" style="html=1;dashed=0;whiteSpace=wrap;shape=mxgraph.dfd.start;fillColor=#f5f5f5;gradientColor=#b3b3b3;strokeColor=#666666;" vertex="1" parent="1">
          <mxGeometry x="385" y="50" width="80" height="30" as="geometry" />
        </mxCell>
        <mxCell id="FGNxBJC4txxLCURp01Lw-3" style="edgeStyle=orthogonalEdgeStyle;rounded=0;orthogonalLoop=1;jettySize=auto;html=1;exitX=0.5;exitY=0.5;exitDx=0;exitDy=15;exitPerimeter=0;entryX=0.6;entryY=0;entryDx=0;entryDy=0;entryPerimeter=0;" edge="1" parent="1" source="FGNxBJC4txxLCURp01Lw-1" target="FGNxBJC4txxLCURp01Lw-11">
          <mxGeometry relative="1" as="geometry">
            <mxPoint x="425" y="150" as="targetPoint" />
          </mxGeometry>
        </mxCell>
        <mxCell id="FGNxBJC4txxLCURp01Lw-12" style="edgeStyle=orthogonalEdgeStyle;rounded=0;orthogonalLoop=1;jettySize=auto;html=1;exitX=0.5;exitY=1;exitDx=0;exitDy=0;" edge="1" parent="1" source="FGNxBJC4txxLCURp01Lw-11" target="FGNxBJC4txxLCURp01Lw-20">
          <mxGeometry relative="1" as="geometry">
            <mxPoint x="415" y="250" as="targetPoint" />
          </mxGeometry>
        </mxCell>
        <mxCell id="FGNxBJC4txxLCURp01Lw-11" value="&lt;div&gt;Lo&lt;/div&gt;&lt;div&gt;Phi&lt;/div&gt;&lt;div&gt;d&lt;br&gt;&lt;/div&gt;" style="shape=parallelogram;html=1;strokeWidth=2;perimeter=parallelogramPerimeter;whiteSpace=wrap;rounded=1;arcSize=12;size=0.23;fillColor=#f5f5f5;gradientColor=#b3b3b3;strokeColor=#666666;" vertex="1" parent="1">
          <mxGeometry x="365" y="130" width="100" height="60" as="geometry" />
        </mxCell>
        <mxCell id="FGNxBJC4txxLCURp01Lw-14" style="edgeStyle=orthogonalEdgeStyle;rounded=0;orthogonalLoop=1;jettySize=auto;html=1;exitX=0.5;exitY=1;exitDx=0;exitDy=0;" edge="1" parent="1" target="FGNxBJC4txxLCURp01Lw-21">
          <mxGeometry relative="1" as="geometry">
            <mxPoint x="415" y="400" as="targetPoint" />
            <mxPoint x="415" y="350" as="sourcePoint" />
          </mxGeometry>
        </mxCell>
        <mxCell id="FGNxBJC4txxLCURp01Lw-18" style="edgeStyle=orthogonalEdgeStyle;rounded=0;orthogonalLoop=1;jettySize=auto;html=1;exitX=0.5;exitY=1;exitDx=0;exitDy=0;" edge="1" parent="1" source="FGNxBJC4txxLCURp01Lw-17" target="FGNxBJC4txxLCURp01Lw-19">
          <mxGeometry relative="1" as="geometry">
            <mxPoint x="415" y="680" as="targetPoint" />
          </mxGeometry>
        </mxCell>
        <mxCell id="FGNxBJC4txxLCURp01Lw-17" value="Lo" style="shape=parallelogram;html=1;strokeWidth=2;perimeter=parallelogramPerimeter;whiteSpace=wrap;rounded=1;arcSize=12;size=0.23;fillColor=#f5f5f5;gradientColor=#b3b3b3;strokeColor=#666666;" vertex="1" parent="1">
          <mxGeometry x="365" y="520" width="100" height="60" as="geometry" />
        </mxCell>
        <mxCell id="FGNxBJC4txxLCURp01Lw-19" value="End" style="html=1;dashed=0;whiteSpace=wrap;shape=mxgraph.dfd.start;fillColor=#f5f5f5;gradientColor=#b3b3b3;strokeColor=#666666;" vertex="1" parent="1">
          <mxGeometry x="375" y="680" width="80" height="30" as="geometry" />
        </mxCell>
        <mxCell id="FGNxBJC4txxLCURp01Lw-20" value="Lo = Phi x d" style="strokeWidth=2;html=1;shape=mxgraph.flowchart.decision;whiteSpace=wrap;fillColor=#f5f5f5;gradientColor=#b3b3b3;strokeColor=#666666;" vertex="1" parent="1">
          <mxGeometry x="365" y="250" width="100" height="100" as="geometry" />
        </mxCell>
        <mxCell id="FGNxBJC4txxLCURp01Lw-22" style="edgeStyle=orthogonalEdgeStyle;rounded=0;orthogonalLoop=1;jettySize=auto;html=1;exitX=0.5;exitY=1;exitDx=0;exitDy=0;entryX=0.5;entryY=0;entryDx=0;entryDy=0;fillColor=#f5f5f5;gradientColor=#b3b3b3;strokeColor=#666666;" edge="1" parent="1" source="FGNxBJC4txxLCURp01Lw-21" target="FGNxBJC4txxLCURp01Lw-17">
          <mxGeometry relative="1" as="geometry" />
        </mxCell>
        <mxCell id="FGNxBJC4txxLCURp01Lw-21" value="Phi x d" style="html=1;dashed=0;whiteSpace=wrap;fillColor=#f5f5f5;gradientColor=#b3b3b3;strokeColor=#666666;" vertex="1" parent="1">
          <mxGeometry x="365" y="400" width="100" height="50" as="geometry" />
        </mxCell>
      </root>
    </mxGraphModel>
  </diagram>
</mxfile>
